<svg width="25" height="25" viewBox="0 0 25 25" fill="none" xmlns="http://www.w3.org/2000/svg">
<path d="M17.0298 6.00335C16.3463 5.22297 15.9696 4.22078 15.9698 3.18335H12.8798V15.5833C12.856 16.2544 12.5727 16.89 12.0896 17.3563C11.6065 17.8226 10.9613 18.0833 10.2898 18.0833C8.86984 18.0833 7.68984 16.9233 7.68984 15.4833C7.68984 13.7633 9.34984 12.4733 11.0598 13.0033V9.84335C7.60984 9.38335 4.58984 12.0633 4.58984 15.4833C4.58984 18.8133 7.34984 21.1833 10.2798 21.1833C13.4198 21.1833 15.9698 18.6333 15.9698 15.4833V9.19335C17.2228 10.0932 18.7272 10.576 20.2698 10.5733V7.48335C20.2698 7.48335 18.3898 7.57335 17.0298 6.00335Z" fill="white"/>
</svg>
