<svg width="25" height="25" viewBox="0 0 25 25" fill="none" xmlns="http://www.w3.org/2000/svg">
<path d="M8.22969 2.18335H16.6297C19.8297 2.18335 22.4297 4.78335 22.4297 7.98335V16.3834C22.4297 17.9216 21.8186 19.3969 20.7309 20.4846C19.6432 21.5723 18.1679 22.1833 16.6297 22.1833H8.22969C5.02969 22.1833 2.42969 19.5834 2.42969 16.3834V7.98335C2.42969 6.44509 3.04076 4.96984 4.12847 3.88213C5.21618 2.79442 6.69143 2.18335 8.22969 2.18335ZM8.02969 4.18335C7.07491 4.18335 6.15923 4.56263 5.4841 5.23777C4.80897 5.9129 4.42969 6.82857 4.42969 7.78335V16.5833C4.42969 18.5733 6.03969 20.1833 8.02969 20.1833H16.8297C17.7845 20.1833 18.7001 19.8041 19.3753 19.1289C20.0504 18.4538 20.4297 17.5381 20.4297 16.5833V7.78335C20.4297 5.79335 18.8197 4.18335 16.8297 4.18335H8.02969ZM17.6797 5.68335C18.0112 5.68335 18.3292 5.81505 18.5636 6.04947C18.798 6.28389 18.9297 6.60183 18.9297 6.93335C18.9297 7.26487 18.798 7.58281 18.5636 7.81723C18.3292 8.05165 18.0112 8.18335 17.6797 8.18335C17.3482 8.18335 17.0302 8.05165 16.7958 7.81723C16.5614 7.58281 16.4297 7.26487 16.4297 6.93335C16.4297 6.60183 16.5614 6.28389 16.7958 6.04947C17.0302 5.81505 17.3482 5.68335 17.6797 5.68335ZM12.4297 7.18335C13.7558 7.18335 15.0275 7.71013 15.9652 8.64782C16.9029 9.5855 17.4297 10.8573 17.4297 12.1833C17.4297 13.5094 16.9029 14.7812 15.9652 15.7189C15.0275 16.6566 13.7558 17.1833 12.4297 17.1833C11.1036 17.1833 9.83184 16.6566 8.89415 15.7189C7.95647 14.7812 7.42969 13.5094 7.42969 12.1833C7.42969 10.8573 7.95647 9.5855 8.89415 8.64782C9.83184 7.71013 11.1036 7.18335 12.4297 7.18335ZM12.4297 9.18335C11.634 9.18335 10.871 9.49942 10.3084 10.062C9.74576 10.6246 9.42969 11.3877 9.42969 12.1833C9.42969 12.979 9.74576 13.7421 10.3084 14.3047C10.871 14.8673 11.634 15.1833 12.4297 15.1833C13.2253 15.1833 13.9884 14.8673 14.551 14.3047C15.1136 13.7421 15.4297 12.979 15.4297 12.1833C15.4297 11.3877 15.1136 10.6246 14.551 10.062C13.9884 9.49942 13.2253 9.18335 12.4297 9.18335Z" fill="white"/>
</svg>
